<svg width="40" height="40" viewBox="0 0 40 40" fill="none" xmlns="http://www.w3.org/2000/svg">
<rect width="40" height="40" fill="white"/>
<path d="M25 15H21V17.0121H25C26.65 17.0121 28 18.3702 28 20.0302C28 21.6901 26.65 23.0482 25 23.0482H21V25.0603H25C27.76 25.0603 30 22.8068 30 20.0302C30 17.2535 27.76 15 25 15ZM19 23.0482H15C13.35 23.0482 12 21.6901 12 20.0302C12 18.3702 13.35 17.0121 15 17.0121H19V15H15C12.24 15 10 17.2535 10 20.0302C10 22.8068 12.24 25.0603 15 25.0603H19V23.0482ZM16 19.0241H24V21.0362H16V19.0241Z" fill="black"/>
</svg>
