<svg width="16" height="14" viewBox="0 0 16 14" fill="none" xmlns="http://www.w3.org/2000/svg">
<path d="M9.696 1.55556L11.16 3.11111H14.4V12.4444H1.6V3.11111H4.84L6.304 1.55556H9.696ZM10.4 0H5.6L4.136 1.55556H1.6C0.72 1.55556 0 2.25556 0 3.11111V12.4444C0 13.3 0.72 14 1.6 14H14.4C15.28 14 16 13.3 16 12.4444V3.11111C16 2.25556 15.28 1.55556 14.4 1.55556H11.864L10.4 0ZM8 5.44444C9.32 5.44444 10.4 6.49444 10.4 7.77778C10.4 9.06111 9.32 10.1111 8 10.1111C6.68 10.1111 5.6 9.06111 5.6 7.77778C5.6 6.49444 6.68 5.44444 8 5.44444ZM8 3.88889C5.792 3.88889 4 5.63111 4 7.77778C4 9.92444 5.792 11.6667 8 11.6667C10.208 11.6667 12 9.92444 12 7.77778C12 5.63111 10.208 3.88889 8 3.88889Z" fill="#3864F9"/>
</svg>
