<svg width="15" height="15" viewBox="0 0 15 15" fill="none" xmlns="http://www.w3.org/2000/svg">
<path d="M12.0461 10.6024C11.4584 10.6024 10.9326 10.8283 10.5305 11.1822L5.01721 8.05723C5.05587 7.88404 5.0868 7.71084 5.0868 7.53012C5.0868 7.3494 5.05587 7.1762 5.01721 7.00301L10.4687 3.90813C10.8862 4.28464 11.4352 4.51807 12.0461 4.51807C13.3297 4.51807 14.3659 3.50904 14.3659 2.25904C14.3659 1.00904 13.3297 0 12.0461 0C10.7625 0 9.72634 1.00904 9.72634 2.25904C9.72634 2.43976 9.75727 2.61295 9.79593 2.78614L4.34448 5.88102C3.92692 5.50452 3.37791 5.27108 2.76703 5.27108C1.48343 5.27108 0.447266 6.28012 0.447266 7.53012C0.447266 8.78012 1.48343 9.78916 2.76703 9.78916C3.37791 9.78916 3.92692 9.55572 4.34448 9.17922L9.85006 12.3117C9.8114 12.4699 9.7882 12.6355 9.7882 12.8012C9.7882 14.0136 10.8012 15 12.0461 15C13.291 15 14.304 14.0136 14.304 12.8012C14.304 11.5889 13.291 10.6024 12.0461 10.6024ZM12.0461 1.50602C12.4714 1.50602 12.8194 1.84488 12.8194 2.25904C12.8194 2.67319 12.4714 3.01205 12.0461 3.01205C11.6208 3.01205 11.2729 2.67319 11.2729 2.25904C11.2729 1.84488 11.6208 1.50602 12.0461 1.50602ZM2.76703 8.28313C2.34174 8.28313 1.99378 7.94428 1.99378 7.53012C1.99378 7.11596 2.34174 6.77711 2.76703 6.77711C3.19232 6.77711 3.54029 7.11596 3.54029 7.53012C3.54029 7.94428 3.19232 8.28313 2.76703 8.28313ZM12.0461 13.5693C11.6208 13.5693 11.2729 13.2304 11.2729 12.8163C11.2729 12.4021 11.6208 12.0633 12.0461 12.0633C12.4714 12.0633 12.8194 12.4021 12.8194 12.8163C12.8194 13.2304 12.4714 13.5693 12.0461 13.5693Z" fill="#3864F9"/>
</svg>
