<svg width="13" height="12" viewBox="0 0 13 12" fill="none" xmlns="http://www.w3.org/2000/svg">
<path d="M11.6637 2.93299C11.672 3.05454 11.672 3.17611 11.672 3.29766C11.672 7.005 8.99116 11.2767 4.09139 11.2767C2.58186 11.2767 1.17958 10.8165 0 10.0178C0.214475 10.0438 0.420674 10.0525 0.643401 10.0525C1.88894 10.0525 3.03554 9.60974 3.95115 8.85437C2.77983 8.82831 1.79822 8.02086 1.46002 6.90951C1.62501 6.93554 1.78997 6.95291 1.96321 6.95291C2.20242 6.95291 2.44165 6.91817 2.66435 6.85742C1.44354 6.59693 0.527899 5.46824 0.527899 4.10511V4.07039C0.882582 4.27877 1.29505 4.409 1.73221 4.42635C1.01456 3.92276 0.544403 3.06322 0.544403 2.09079C0.544403 1.56986 0.676358 1.09233 0.907338 0.675575C2.2189 2.37731 4.19036 3.48864 6.401 3.61021C6.35977 3.40183 6.33501 3.1848 6.33501 2.96773C6.33501 1.42226 7.52284 0.16333 8.99936 0.16333C9.76649 0.16333 10.4594 0.501941 10.9461 1.04893C11.5482 0.927382 12.1256 0.692947 12.6371 0.371708C12.4391 1.0229 12.0184 1.56989 11.4657 1.91716C12.0019 1.85641 12.5216 1.70009 13 1.48306C12.6371 2.0387 12.1834 2.53358 11.6637 2.93299Z" fill="white"/>
</svg>
