<svg width="174" height="11" viewBox="0 0 174 11" fill="none" xmlns="http://www.w3.org/2000/svg">
<path d="M1.498 10V3.028L0.112 3.56V1.418L2.17 0.368H4.018V10H1.498ZM8.8597 10V2.51H7.1937V0.368H13.0597V2.51H11.3937V10H8.8597ZM17.3523 10V6.276H16.2323V10H13.7123V0.368H16.2323V4.036H17.3523V0.368H19.8723V10H17.3523ZM20.9858 10V0.368H23.5058V10H20.9858ZM28.6405 10L27.0865 5.66H27.0165V10H24.6225V0.368H27.0445L28.3885 4.106H28.4725V0.368H30.8665V10H28.6405ZM35.0156 6.192V4.218H37.8436V9.804C37.489 9.89733 37.055 9.972 36.5416 10.028C36.0376 10.084 35.5663 10.112 35.1276 10.112C34.213 10.112 33.527 9.97667 33.0696 9.706C32.6123 9.426 32.295 8.94533 32.1176 8.264C31.9403 7.57333 31.8516 6.54667 31.8516 5.184C31.8516 3.82133 31.945 2.79933 32.1316 2.118C32.3183 1.42733 32.6496 0.946666 33.1256 0.676C33.611 0.396 34.3343 0.255999 35.2956 0.255999C35.6596 0.255999 36.0796 0.283999 36.5556 0.339999C37.0316 0.396 37.4516 0.466 37.8156 0.55V2.468C36.9196 2.37467 36.313 2.328 35.9956 2.328C35.417 2.328 35.025 2.37467 34.8196 2.468C34.6236 2.552 34.493 2.776 34.4276 3.14C34.3623 3.504 34.3296 4.18533 34.3296 5.184C34.3296 6.11733 34.3483 6.77533 34.3856 7.158C34.423 7.54067 34.4976 7.79733 34.6096 7.928C34.731 8.04933 34.9363 8.11 35.2256 8.11L35.6176 8.096V6.192H35.0156ZM41.4389 10V0.368H43.9589V10H41.4389ZM52.3369 9.86C52.1223 9.93467 51.8469 9.99533 51.5109 10.042C51.1749 10.0887 50.8576 10.112 50.5589 10.112C49.6443 10.112 48.9676 9.96267 48.5289 9.664C48.0996 9.356 47.8149 8.87067 47.6749 8.208C47.5349 7.536 47.4649 6.528 47.4649 5.184C47.4649 3.84933 47.5349 2.846 47.6749 2.174C47.8243 1.502 48.1136 1.01667 48.5429 0.717999C48.9816 0.409999 49.6536 0.255999 50.5589 0.255999C50.8856 0.255999 51.2123 0.279333 51.5389 0.325999C51.8749 0.372666 52.1316 0.428666 52.3089 0.494V2.412C51.7209 2.356 51.3103 2.328 51.0769 2.328C50.6943 2.328 50.4329 2.384 50.2929 2.496C50.1623 2.608 50.0783 2.83667 50.0409 3.182C50.0129 3.518 49.9989 4.18533 49.9989 5.184C49.9989 6.18267 50.0129 6.85467 50.0409 7.2C50.0783 7.54533 50.1623 7.774 50.2929 7.886C50.4329 7.98867 50.6943 8.04 51.0769 8.04C51.5716 8.04 51.9916 8.012 52.3369 7.956V9.86ZM57.3814 10L57.1574 8.362H55.4074L55.1834 10H52.7054L54.4694 0.368H58.1514L59.9154 10H57.3814ZM56.3314 2.594H56.2334L55.7154 6.36H56.8494L56.3314 2.594ZM64.5018 10L62.9478 5.66H62.8778V10H60.4838V0.368H62.9058L64.2498 4.106H64.3338V0.368H66.7278V10H64.5018ZM70.3823 0.368H73.1823C74.2369 0.368 74.9836 0.512666 75.4223 0.802C75.8703 1.082 76.1456 1.52533 76.2483 2.132C76.3509 2.72933 76.4023 3.74667 76.4023 5.184C76.4023 6.62133 76.3509 7.64333 76.2483 8.25C76.1456 8.84733 75.8703 9.29067 75.4223 9.58C74.9836 9.86 74.2369 10 73.1823 10H70.3823V0.368ZM73.1963 7.928C73.4483 7.928 73.6163 7.886 73.7003 7.802C73.7843 7.70867 73.8356 7.50333 73.8543 7.186C73.8729 6.85933 73.8823 6.192 73.8823 5.184C73.8823 4.176 73.8729 3.50867 73.8543 3.182C73.8356 2.85533 73.7843 2.65 73.7003 2.566C73.6163 2.482 73.4483 2.44 73.1963 2.44H72.8883V7.928H73.1963ZM80.3783 10.112C79.3516 10.112 78.6189 9.96733 78.1803 9.678C77.7509 9.37933 77.4849 8.922 77.3823 8.306C77.2889 7.68067 77.2423 6.64 77.2423 5.184C77.2423 3.71867 77.2889 2.678 77.3823 2.062C77.4849 1.446 77.7509 0.993333 78.1803 0.704C78.6189 0.405333 79.3516 0.255999 80.3783 0.255999C81.4049 0.255999 82.1329 0.405333 82.5623 0.704C83.0009 0.993333 83.2716 1.45067 83.3743 2.076C83.4769 2.692 83.5283 3.728 83.5283 5.184C83.5283 6.64 83.4769 7.676 83.3743 8.292C83.2716 8.908 83.0009 9.36533 82.5623 9.664C82.1329 9.96267 81.4049 10.112 80.3783 10.112ZM80.3783 8.04C80.6023 8.04 80.7516 7.998 80.8263 7.914C80.9009 7.82067 80.9476 7.606 80.9663 7.27C80.9849 6.92467 80.9943 6.22933 80.9943 5.184C80.9943 4.13867 80.9849 3.448 80.9663 3.112C80.9476 2.76667 80.9009 2.552 80.8263 2.468C80.7516 2.37467 80.6023 2.328 80.3783 2.328C80.1543 2.328 80.0049 2.37467 79.9303 2.468C79.8649 2.552 79.8229 2.76667 79.8043 3.112C79.7856 3.448 79.7763 4.13867 79.7763 5.184C79.7763 6.22933 79.7856 6.92467 79.8043 7.27C79.8229 7.606 79.8649 7.82067 79.9303 7.914C80.0049 7.998 80.1543 8.04 80.3783 8.04ZM88.2386 10V2.51H86.5726V0.368H92.4386V2.51H90.7726V10H88.2386ZM96.0873 10.112C95.0606 10.112 94.3279 9.96733 93.8893 9.678C93.4599 9.37933 93.1939 8.922 93.0913 8.306C92.9979 7.68067 92.9513 6.64 92.9513 5.184C92.9513 3.71867 92.9979 2.678 93.0913 2.062C93.1939 1.446 93.4599 0.993333 93.8893 0.704C94.3279 0.405333 95.0606 0.255999 96.0873 0.255999C97.1139 0.255999 97.8419 0.405333 98.2713 0.704C98.7099 0.993333 98.9806 1.45067 99.0833 2.076C99.1859 2.692 99.2373 3.728 99.2373 5.184C99.2373 6.64 99.1859 7.676 99.0833 8.292C98.9806 8.908 98.7099 9.36533 98.2713 9.664C97.8419 9.96267 97.1139 10.112 96.0873 10.112ZM96.0873 8.04C96.3113 8.04 96.4606 7.998 96.5353 7.914C96.6099 7.82067 96.6566 7.606 96.6753 7.27C96.6939 6.92467 96.7033 6.22933 96.7033 5.184C96.7033 4.13867 96.6939 3.448 96.6753 3.112C96.6566 2.76667 96.6099 2.552 96.5353 2.468C96.4606 2.37467 96.3113 2.328 96.0873 2.328C95.8633 2.328 95.7139 2.37467 95.6393 2.468C95.5739 2.552 95.5319 2.76667 95.5133 3.112C95.4946 3.448 95.4853 4.13867 95.4853 5.184C95.4853 6.22933 95.4946 6.92467 95.5133 7.27C95.5319 7.606 95.5739 7.82067 95.6393 7.914C95.7139 7.998 95.8633 8.04 96.0873 8.04Z" fill="black"/>
<path d="M102.744 10V0.368H107.462V2.44H105.264V4.372H107.168V6.444H105.264V10H102.744ZM108.308 10V0.368H110.828V10H108.308ZM114.969 6.192V4.218H117.797V9.804C117.442 9.89733 117.008 9.972 116.495 10.028C115.991 10.084 115.519 10.112 115.081 10.112C114.166 10.112 113.48 9.97667 113.023 9.706C112.565 9.426 112.248 8.94533 112.071 8.264C111.893 7.57333 111.805 6.54667 111.805 5.184C111.805 3.82133 111.898 2.79933 112.085 2.118C112.271 1.42733 112.603 0.946666 113.079 0.676C113.564 0.396 114.287 0.255999 115.249 0.255999C115.613 0.255999 116.033 0.283999 116.509 0.339999C116.985 0.396 117.405 0.466 117.769 0.55V2.468C116.873 2.37467 116.266 2.328 115.949 2.328C115.37 2.328 114.978 2.37467 114.773 2.468C114.577 2.552 114.446 2.776 114.381 3.14C114.315 3.504 114.283 4.18533 114.283 5.184C114.283 6.11733 114.301 6.77533 114.339 7.158C114.376 7.54067 114.451 7.79733 114.563 7.928C114.684 8.04933 114.889 8.11 115.179 8.11L115.571 8.096V6.192H114.969ZM122.503 10V6.276H121.383V10H118.863V0.368H121.383V4.036H122.503V0.368H125.023V10H122.503ZM127.34 10V2.51H125.674V0.368H131.54V2.51H129.874V10H127.34Z" fill="white"/>
<path d="M138.432 10L137.676 6.836H137.242V10H134.722V0.368H138.264C138.973 0.368 139.51 0.484666 139.874 0.717999C140.238 0.941999 140.481 1.28267 140.602 1.74C140.733 2.188 140.798 2.80867 140.798 3.602C140.798 4.32067 140.742 4.904 140.63 5.352C140.518 5.79067 140.294 6.136 139.958 6.388L141.022 10H138.432ZM137.242 4.848H137.62C137.825 4.848 137.97 4.82933 138.054 4.792C138.138 4.74533 138.194 4.64267 138.222 4.484C138.25 4.32533 138.264 4.04067 138.264 3.63C138.264 3.21933 138.25 2.93933 138.222 2.79C138.203 2.63133 138.152 2.53333 138.068 2.496C137.984 2.44933 137.835 2.426 137.62 2.426H137.242V4.848ZM145.866 10L145.642 8.362H143.892L143.668 10H141.19L142.954 0.368H146.636L148.4 10H145.866ZM144.816 2.594H144.718L144.2 6.36H145.334L144.816 2.594ZM153.7 9.86C153.486 9.93467 153.21 9.99533 152.874 10.042C152.538 10.0887 152.221 10.112 151.922 10.112C151.008 10.112 150.331 9.96267 149.892 9.664C149.463 9.356 149.178 8.87067 149.038 8.208C148.898 7.536 148.828 6.528 148.828 5.184C148.828 3.84933 148.898 2.846 149.038 2.174C149.188 1.502 149.477 1.01667 149.906 0.717999C150.345 0.409999 151.017 0.255999 151.922 0.255999C152.249 0.255999 152.576 0.279333 152.902 0.325999C153.238 0.372666 153.495 0.428666 153.672 0.494V2.412C153.084 2.356 152.674 2.328 152.44 2.328C152.058 2.328 151.796 2.384 151.656 2.496C151.526 2.608 151.442 2.83667 151.404 3.182C151.376 3.518 151.362 4.18533 151.362 5.184C151.362 6.18267 151.376 6.85467 151.404 7.2C151.442 7.54533 151.526 7.774 151.656 7.886C151.796 7.98867 152.058 8.04 152.44 8.04C152.935 8.04 153.355 8.012 153.7 7.956V9.86ZM154.615 10V0.368H157.135V10H154.615ZM160.841 10.112C160.412 10.112 159.95 10.084 159.455 10.028C158.961 9.98133 158.541 9.92067 158.195 9.846V7.942C159.063 8.00733 159.703 8.04 160.113 8.04C160.403 8.04 160.613 8.03067 160.743 8.012C160.874 7.99333 160.967 7.95133 161.023 7.886C161.079 7.83 161.117 7.75067 161.135 7.648C161.154 7.54533 161.163 7.40067 161.163 7.214C161.163 6.934 161.145 6.738 161.107 6.626C161.07 6.50467 160.995 6.416 160.883 6.36C160.771 6.304 160.571 6.25267 160.281 6.206L159.091 5.982C158.699 5.90733 158.419 5.64133 158.251 5.184C158.093 4.71733 158.013 4.064 158.013 3.224C158.013 2.40267 158.135 1.77733 158.377 1.348C158.629 0.909333 158.965 0.62 159.385 0.48C159.815 0.330666 160.351 0.255999 160.995 0.255999C161.481 0.255999 161.929 0.283999 162.339 0.339999C162.75 0.396 163.072 0.452 163.305 0.508V2.426C162.745 2.36067 162.171 2.328 161.583 2.328C161.313 2.328 161.112 2.33733 160.981 2.356C160.86 2.36533 160.767 2.398 160.701 2.454C160.636 2.51 160.589 2.58933 160.561 2.692C160.543 2.79467 160.533 2.944 160.533 3.14C160.533 3.364 160.543 3.52733 160.561 3.63C160.589 3.73267 160.641 3.80733 160.715 3.854C160.79 3.90067 160.916 3.94267 161.093 3.98L162.115 4.176C162.433 4.24133 162.699 4.344 162.913 4.484C163.137 4.624 163.319 4.87133 163.459 5.226C163.609 5.63667 163.683 6.18733 163.683 6.878C163.683 7.82067 163.562 8.52533 163.319 8.992C163.086 9.45867 162.773 9.762 162.381 9.902C161.989 10.042 161.476 10.112 160.841 10.112ZM171.134 10V3.462H171.008L170.084 10H167.942L167.032 3.462H166.892V10H164.54V0.368H168.264L169.02 6.22H169.132L169.874 0.368H173.556V10H171.134Z" fill="#3F3F3F"/>
</svg>
