<svg width="155" height="11" viewBox="0 0 155 11" fill="none" xmlns="http://www.w3.org/2000/svg">
<path d="M1.498 10V3.028L0.112 3.56V1.418L2.17 0.368H4.018V10H1.498ZM8.8597 10V2.51H7.1937V0.368H13.0597V2.51H11.3937V10H8.8597ZM17.3523 10V6.276H16.2323V10H13.7123V0.368H16.2323V4.036H17.3523V0.368H19.8723V10H17.3523ZM20.9858 10V0.368H23.5058V10H20.9858ZM28.6405 10L27.0865 5.66H27.0165V10H24.6225V0.368H27.0445L28.3885 4.106H28.4725V0.368H30.8665V10H28.6405ZM35.0156 6.192V4.218H37.8436V9.804C37.489 9.89733 37.055 9.972 36.5416 10.028C36.0376 10.084 35.5663 10.112 35.1276 10.112C34.213 10.112 33.527 9.97667 33.0696 9.706C32.6123 9.426 32.295 8.94533 32.1176 8.264C31.9403 7.57333 31.8516 6.54667 31.8516 5.184C31.8516 3.82133 31.945 2.79933 32.1316 2.118C32.3183 1.42733 32.6496 0.946666 33.1256 0.676C33.611 0.396 34.3343 0.255999 35.2956 0.255999C35.6596 0.255999 36.0796 0.283999 36.5556 0.339999C37.0316 0.396 37.4516 0.466 37.8156 0.55V2.468C36.9196 2.37467 36.313 2.328 35.9956 2.328C35.417 2.328 35.025 2.37467 34.8196 2.468C34.6236 2.552 34.493 2.776 34.4276 3.14C34.3623 3.504 34.3296 4.18533 34.3296 5.184C34.3296 6.11733 34.3483 6.77533 34.3856 7.158C34.423 7.54067 34.4976 7.79733 34.6096 7.928C34.731 8.04933 34.9363 8.11 35.2256 8.11L35.6176 8.096V6.192H35.0156ZM41.4389 10V0.368H43.9589V10H41.4389ZM47.6049 0.368H50.4049C51.4596 0.368 52.2063 0.512666 52.6449 0.802C53.0929 1.082 53.3683 1.52533 53.4709 2.132C53.5736 2.72933 53.6249 3.74667 53.6249 5.184C53.6249 6.62133 53.5736 7.64333 53.4709 8.25C53.3683 8.84733 53.0929 9.29067 52.6449 9.58C52.2063 9.86 51.4596 10 50.4049 10H47.6049V0.368ZM50.4189 7.928C50.6709 7.928 50.8389 7.886 50.9229 7.802C51.0069 7.70867 51.0583 7.50333 51.0769 7.186C51.0956 6.85933 51.1049 6.192 51.1049 5.184C51.1049 4.176 51.0956 3.50867 51.0769 3.182C51.0583 2.85533 51.0069 2.65 50.9229 2.566C50.8389 2.482 50.6709 2.44 50.4189 2.44H50.1109V7.928H50.4189ZM54.6049 10V0.368H57.1249V10H54.6049ZM58.2416 0.368H61.0416C62.0963 0.368 62.843 0.512666 63.2816 0.802C63.7296 1.082 64.005 1.52533 64.1076 2.132C64.2103 2.72933 64.2616 3.74667 64.2616 5.184C64.2616 6.62133 64.2103 7.64333 64.1076 8.25C64.005 8.84733 63.7296 9.29067 63.2816 9.58C62.843 9.86 62.0963 10 61.0416 10H58.2416V0.368ZM61.0556 7.928C61.3076 7.928 61.4756 7.886 61.5596 7.802C61.6436 7.70867 61.695 7.50333 61.7136 7.186C61.7323 6.85933 61.7416 6.192 61.7416 5.184C61.7416 4.176 61.7323 3.50867 61.7136 3.182C61.695 2.85533 61.6436 2.65 61.5596 2.566C61.4756 2.482 61.3076 2.44 61.0556 2.44H60.7476V7.928H61.0556ZM68.9749 10V2.51H67.3089V0.368H73.1749V2.51H71.5089V10H68.9749ZM76.8236 10.112C75.7969 10.112 75.0642 9.96733 74.6256 9.678C74.1962 9.37933 73.9302 8.922 73.8276 8.306C73.7342 7.68067 73.6876 6.64 73.6876 5.184C73.6876 3.71867 73.7342 2.678 73.8276 2.062C73.9302 1.446 74.1962 0.993333 74.6256 0.704C75.0642 0.405333 75.7969 0.255999 76.8236 0.255999C77.8502 0.255999 78.5782 0.405333 79.0076 0.704C79.4462 0.993333 79.7169 1.45067 79.8196 2.076C79.9222 2.692 79.9736 3.728 79.9736 5.184C79.9736 6.64 79.9222 7.676 79.8196 8.292C79.7169 8.908 79.4462 9.36533 79.0076 9.664C78.5782 9.96267 77.8502 10.112 76.8236 10.112ZM76.8236 8.04C77.0476 8.04 77.1969 7.998 77.2716 7.914C77.3462 7.82067 77.3929 7.606 77.4116 7.27C77.4302 6.92467 77.4396 6.22933 77.4396 5.184C77.4396 4.13867 77.4302 3.448 77.4116 3.112C77.3929 2.76667 77.3462 2.552 77.2716 2.468C77.1969 2.37467 77.0476 2.328 76.8236 2.328C76.5996 2.328 76.4502 2.37467 76.3756 2.468C76.3102 2.552 76.2682 2.76667 76.2496 3.112C76.2309 3.448 76.2216 4.13867 76.2216 5.184C76.2216 6.22933 76.2309 6.92467 76.2496 7.27C76.2682 7.606 76.3102 7.82067 76.3756 7.914C76.4502 7.998 76.5996 8.04 76.8236 8.04Z" fill="black"/>
<path d="M83.4799 10V0.368H88.1979V2.44H85.9999V4.372H87.9039V6.444H85.9999V10H83.4799ZM89.0444 10V0.368H91.5644V10H89.0444ZM95.7051 6.192V4.218H98.5331V9.804C98.1784 9.89733 97.7444 9.972 97.2311 10.028C96.7271 10.084 96.2558 10.112 95.8171 10.112C94.9024 10.112 94.2164 9.97667 93.7591 9.706C93.3018 9.426 92.9844 8.94533 92.8071 8.264C92.6298 7.57333 92.5411 6.54667 92.5411 5.184C92.5411 3.82133 92.6344 2.79933 92.8211 2.118C93.0078 1.42733 93.3391 0.946666 93.8151 0.676C94.3004 0.396 95.0238 0.255999 95.9851 0.255999C96.3491 0.255999 96.7691 0.283999 97.2451 0.339999C97.7211 0.396 98.1411 0.466 98.5051 0.55V2.468C97.6091 2.37467 97.0024 2.328 96.6851 2.328C96.1064 2.328 95.7144 2.37467 95.5091 2.468C95.3131 2.552 95.1824 2.776 95.1171 3.14C95.0518 3.504 95.0191 4.18533 95.0191 5.184C95.0191 6.11733 95.0378 6.77533 95.0751 7.158C95.1124 7.54067 95.1871 7.79733 95.2991 7.928C95.4204 8.04933 95.6258 8.11 95.9151 8.11L96.3071 8.096V6.192H95.7051ZM103.239 10V6.276H102.119V10H99.5991V0.368H102.119V4.036H103.239V0.368H105.759V10H103.239ZM108.077 10V2.51H106.411V0.368H112.277V2.51H110.611V10H108.077Z" fill="white"/>
<path d="M119.168 10L118.412 6.836H117.978V10H115.458V0.368H119C119.71 0.368 120.246 0.484666 120.61 0.717999C120.974 0.941999 121.217 1.28267 121.338 1.74C121.469 2.188 121.534 2.80867 121.534 3.602C121.534 4.32067 121.478 4.904 121.366 5.352C121.254 5.79067 121.03 6.136 120.694 6.388L121.758 10H119.168ZM117.978 4.848H118.356C118.562 4.848 118.706 4.82933 118.79 4.792C118.874 4.74533 118.93 4.64267 118.958 4.484C118.986 4.32533 119 4.04067 119 3.63C119 3.21933 118.986 2.93933 118.958 2.79C118.94 2.63133 118.888 2.53333 118.804 2.496C118.72 2.44933 118.571 2.426 118.356 2.426H117.978V4.848ZM126.602 10L126.378 8.362H124.628L124.404 10H121.926L123.69 0.368H127.372L129.136 10H126.602ZM125.552 2.594H125.454L124.936 6.36H126.07L125.552 2.594ZM134.437 9.86C134.222 9.93467 133.947 9.99533 133.611 10.042C133.275 10.0887 132.957 10.112 132.659 10.112C131.744 10.112 131.067 9.96267 130.629 9.664C130.199 9.356 129.915 8.87067 129.775 8.208C129.635 7.536 129.565 6.528 129.565 5.184C129.565 3.84933 129.635 2.846 129.775 2.174C129.924 1.502 130.213 1.01667 130.643 0.717999C131.081 0.409999 131.753 0.255999 132.659 0.255999C132.985 0.255999 133.312 0.279333 133.639 0.325999C133.975 0.372666 134.231 0.428666 134.409 0.494V2.412C133.821 2.356 133.41 2.328 133.177 2.328C132.794 2.328 132.533 2.384 132.393 2.496C132.262 2.608 132.178 2.83667 132.141 3.182C132.113 3.518 132.099 4.18533 132.099 5.184C132.099 6.18267 132.113 6.85467 132.141 7.2C132.178 7.54533 132.262 7.774 132.393 7.886C132.533 7.98867 132.794 8.04 133.177 8.04C133.671 8.04 134.091 8.012 134.437 7.956V9.86ZM135.351 10V0.368H137.871V10H135.351ZM141.578 10.112C141.148 10.112 140.686 10.084 140.192 10.028C139.697 9.98133 139.277 9.92067 138.932 9.846V7.942C139.8 8.00733 140.439 8.04 140.85 8.04C141.139 8.04 141.349 8.03067 141.48 8.012C141.61 7.99333 141.704 7.95133 141.76 7.886C141.816 7.83 141.853 7.75067 141.872 7.648C141.89 7.54533 141.9 7.40067 141.9 7.214C141.9 6.934 141.881 6.738 141.844 6.626C141.806 6.50467 141.732 6.416 141.62 6.36C141.508 6.304 141.307 6.25267 141.018 6.206L139.828 5.982C139.436 5.90733 139.156 5.64133 138.988 5.184C138.829 4.71733 138.75 4.064 138.75 3.224C138.75 2.40267 138.871 1.77733 139.114 1.348C139.366 0.909333 139.702 0.62 140.122 0.48C140.551 0.330666 141.088 0.255999 141.732 0.255999C142.217 0.255999 142.665 0.283999 143.076 0.339999C143.486 0.396 143.808 0.452 144.042 0.508V2.426C143.482 2.36067 142.908 2.328 142.32 2.328C142.049 2.328 141.848 2.33733 141.718 2.356C141.596 2.36533 141.503 2.398 141.438 2.454C141.372 2.51 141.326 2.58933 141.298 2.692C141.279 2.79467 141.27 2.944 141.27 3.14C141.27 3.364 141.279 3.52733 141.298 3.63C141.326 3.73267 141.377 3.80733 141.452 3.854C141.526 3.90067 141.652 3.94267 141.83 3.98L142.852 4.176C143.169 4.24133 143.435 4.344 143.65 4.484C143.874 4.624 144.056 4.87133 144.196 5.226C144.345 5.63667 144.42 6.18733 144.42 6.878C144.42 7.82067 144.298 8.52533 144.056 8.992C143.822 9.45867 143.51 9.762 143.118 9.902C142.726 10.042 142.212 10.112 141.578 10.112ZM151.871 10V3.462H151.745L150.821 10H148.679L147.769 3.462H147.629V10H145.277V0.368H149.001L149.757 6.22H149.869L150.611 0.368H154.293V10H151.871Z" fill="#3F3F3F"/>
</svg>
