<svg width="12" height="12" viewBox="0 0 12 12" fill="none" xmlns="http://www.w3.org/2000/svg">
<path d="M8.71938 0.954834C7.7054 0.954834 6.73221 1.43729 6.09702 2.19968C5.46182 1.43729 4.48863 0.954834 3.47465 0.954834C1.67978 0.954834 0.269531 2.39623 0.269531 4.23074C0.269531 6.48219 2.25088 8.3167 5.25203 11.1042L6.09702 11.8845L6.942 11.0982C9.94316 8.3167 11.9245 6.48219 11.9245 4.23074C11.9245 2.39623 10.5142 0.954834 8.71938 0.954834ZM6.15529 10.2167L6.09702 10.2763L6.03874 10.2167C3.26486 7.6496 1.43503 5.95209 1.43503 4.23074C1.43503 3.0395 2.30915 2.14607 3.47465 2.14607C4.37208 2.14607 5.2462 2.73574 5.55506 3.55174H6.6448C6.94783 2.73574 7.82195 2.14607 8.71938 2.14607C9.88488 2.14607 10.759 3.0395 10.759 4.23074C10.759 5.95209 8.92917 7.6496 6.15529 10.2167Z" fill="#3864F9"/>
</svg>
